<?xml version="1.0" standalone="no"?>
<!DOCTYPE svg PUBLIC "-//W3C//DTD SVG 20010904//EN"
 "http://www.w3.org/TR/2001/REC-SVG-20010904/DTD/svg10.dtd">
<svg version="1.0" xmlns="http://www.w3.org/2000/svg"
 width="288.000000pt" height="288.000000pt" viewBox="0 0 288.000000 288.000000"
 preserveAspectRatio="xMidYMid meet">
<metadata>
Created by potrace 1.14, written by Peter Selinger 2001-2017
</metadata>
<g transform="translate(0.000000,288.000000) scale(0.100000,-0.100000)"
fill="#000000" stroke="none">
<path d="M1227 2164 c-1 -1 -24 -5 -50 -8 -56 -8 -124 -32 -149 -54 -10 -8
-18 -12 -18 -9 0 9 -47 -30 -92 -78 -58 -62 -108 -173 -108 -241 l0 -34 -156
0 c-200 0 -303 -25 -371 -89 -12 -12 -26 -21 -30 -21 -13 -1 -76 -86 -105
-142 -15 -29 -30 -76 -34 -103 -9 -59 -10 -280 -2 -345 21 -167 165 -319 339
-359 69 -16 1190 -11 1254 5 170 45 294 178 330 353 l11 56 159 1 c174 2 221
10 306 55 103 55 187 159 214 266 17 65 26 233 12 233 -4 0 -5 5 -1 11 8 13 7
87 -1 143 -12 85 -124 266 -165 266 -5 0 -10 4 -10 9 0 11 -93 56 -151 72 -33
9 -190 13 -612 13 -313 1 -569 0 -570 0z m1168 -248 c49 -31 76 -59 98 -101
18 -35 20 -58 20 -186 -1 -165 -12 -202 -78 -256 -52 -43 -84 -49 -244 -49
l-145 1 -16 68 c-9 37 -14 67 -12 67 3 0 -1 8 -9 18 -8 9 -21 31 -29 47 -41
84 -191 192 -290 209 -19 4 -175 6 -347 6 l-312 -1 10 33 c22 79 77 136 147
155 18 4 290 8 605 8 544 0 574 -1 602 -19z m-1602 -405 c12 -1 17 -10 17 -34
0 -44 31 -125 74 -194 20 -31 36 -54 36 -50 0 4 13 -6 29 -22 16 -16 53 -43
83 -60 95 -53 133 -58 471 -57 341 1 323 5 293 -65 -21 -47 -62 -88 -111 -110
-39 -17 -80 -19 -612 -20 -558 -1 -572 0 -616 20 -49 23 -95 73 -113 127 -13
38 -12 297 1 329 15 36 67 95 97 111 16 8 48 18 70 22 32 6 198 7 281 3z m877
-6 c43 -13 102 -67 121 -109 36 -80 54 -75 -271 -76 -319 -1 -358 4 -412 53
-55 50 -91 133 -60 139 36 7 599 1 622 -7z"/>
</g>
</svg>
